<?xml version="1.0" standalone="no"?>
<!DOCTYPE svg PUBLIC "-//W3C//DTD SVG 20010904//EN"
 "http://www.w3.org/TR/2001/REC-SVG-20010904/DTD/svg10.dtd">
<svg version="1.0" xmlns="http://www.w3.org/2000/svg"
 width="500.000000pt" height="500.000000pt" viewBox="0 0 500.000000 500.000000"
 preserveAspectRatio="xMidYMid meet">
<metadata>
Created by potrace 1.14, written by Peter Selinger 2001-2017
</metadata>
<g transform="translate(0.000000,500.000000) scale(0.100000,-0.100000)"
fill="#000000" stroke="none">
<path d="M0 2500 l0 -2500 2500 0 2500 0 0 2500 0 2500 -2500 0 -2500 0 0
-2500z m2665 2059 c569 -49 1089 -325 1446 -766 320 -397 490 -939 450 -1435
-48 -587 -319 -1106 -768 -1469 -397 -320 -939 -490 -1435 -450 -751 61 -1387
490 -1713 1156 -281 573 -281 1237 0 1810 284 580 816 992 1447 1120 206 41
375 52 573 34z"/>
<path d="M2320 3969 c-631 -78 -1136 -547 -1272 -1183 -31 -145 -31 -427 0
-572 129 -600 566 -1037 1166 -1166 145 -31 427 -31 572 0 600 129 1037 566
1166 1166 31 145 31 427 0 572 -129 600 -573 1044 -1166 1165 -117 24 -349 33
-466 18z m470 -1104 l0 -725 260 0 260 0 0 -255 0 -255 -810 0 -810 0 0 255 0
255 255 0 255 0 0 725 0 725 295 0 295 0 0 -725z"/>
</g>
</svg>
