<svg width="1472" height="335" viewBox="0 0 1472 335" fill="none" xmlns="http://www.w3.org/2000/svg">
<path d="M1433.77 135.343C1402.55 47.7515 1276.05 17.1419 1204.23 83.0257C1145.96 132.883 1156.38 224.465 1213.97 270.208C1250.16 300.552 1302.45 310.726 1348.23 295.536C1413.6 275.386 1459.32 203.042 1433.99 135.951L1433.76 135.334L1433.77 135.343Z" stroke="white" stroke-width="61.7513" stroke-linecap="round" stroke-dasharray="0.95 0.95"/>
<path d="M1158.85 195.147C1138.8 138.896 1057.56 119.24 1011.44 161.554C974.029 193.57 980.718 252.386 1017.7 281.76C1040.94 301.245 1074.51 307.781 1103.92 298.025C1145.9 285.085 1175.25 238.629 1158.99 195.546L1158.85 195.147Z" stroke="white" stroke-width="61.7513" stroke-miterlimit="10"/>
<path d="M18.5249 100.286C99.0296 158.427 205.517 198.528 305.393 175.005C346.025 165.439 383.361 145.593 422.017 129.822C470.43 110.071 526.339 96.0111 575.635 120.769C613.646 139.864 637.491 179.936 624.732 222.44C608.972 274.985 566.449 305.158 511.196 302.317C479.379 300.683 430.387 278.462 440.22 238.495C443.108 226.743 451.962 217.158 462.27 210.802C500.726 187.089 550.526 192.372 591.092 207.116C632.105 222.031 670.685 250.38 709.788 269.76C758.552 293.929 812.827 311.324 865.705 301.13C911.743 292.257 972.981 254.997 966.502 199.098C962.103 161.116 922.241 138.553 889.778 127.39C846.41 112.484 789.209 109.872 747.598 125.348C722.879 134.335 706.548 148.614 703.356 162.265C699.926 175.794 709.322 188.486 728.589 194.994C759.502 205.966 807.564 197.15 838.278 179.708C926.193 131.133 909.966 33.7278 807.269 31.2767C748.967 29.9847 690.977 55.5592 641.529 103.621" stroke="white" stroke-width="61.7513" stroke-miterlimit="10"/>
<path d="M386.17 263.156C350.078 282.527 313.398 302.06 273.155 302.468C233.093 303.637 188.689 278.946 183.445 234.846C176.719 164.079 237.264 94.1953 273.117 33.9831" stroke="white" stroke-width="61.7513" stroke-miterlimit="10"/>
<path d="M982.745 86.5627V60.1521H972.124V86.5627H962.842V95.5593H992.112V86.5627H982.745Z" fill="white"/>
<path d="M977.513 117.322C956.888 117.322 940.102 100.535 940.102 79.9098C940.102 59.2848 956.888 42.498 977.513 42.498C998.138 42.498 1014.93 59.2848 1014.93 79.9098C1014.93 100.535 998.138 117.322 977.513 117.322ZM977.513 53.0622C962.712 53.0622 950.666 65.1085 950.666 79.9098C950.666 94.7111 962.712 106.757 977.513 106.757C992.315 106.757 1004.36 94.7111 1004.36 79.9098C1004.36 65.1085 992.315 53.0622 977.513 53.0622Z" fill="white"/>
</svg>
